<?xml version="1.0" encoding="utf-8"?>
<svg xmlns="http://www.w3.org/2000/svg" viewBox="0 0 24 24" width="20" height="20">
  <path d="M14 2C13.2908 2 12.679315 2.2655795 12.080078 2.5292969C10.232788 1.6732957 7.984319 1.9453684 6.4648438 3.4648438C6.1441089 3.7855786 5.8954006 4.1406575 5.6992188 4.515625L5.6699219 4.5C5.0630052 5.5507072 4.9071497 6.7326156 5.1015625 7.8476562C3.2754904 8.8728198 2 10.76268 2 13C2 14.819816 2.8864861 16.388036 4.1660156 17.484375C4.6408757 20.032141 6.8174874 22 9.5 22C10.422128 22 11.234575 21.644027 12 21.240234C12.765425 21.644027 13.577872 22 14.5 22C17.182513 22 19.359124 20.032141 19.833984 17.484375C21.113514 16.388036 22 14.819816 22 13C22 10.762122 20.724203 8.8696567 18.898438 7.84375C18.937467 7.6188856 18.970279 7.3949196 18.978516 7.1660156C18.985127 7.1103695 19 7.0589838 19 7C19 6.7935005 18.983631 6.5907529 18.958984 6.390625C18.957639 6.3794243 18.954547 6.368619 18.953125 6.3574219C18.924155 6.1347534 18.866143 5.9236326 18.808594 5.7109375C18.75257 5.5000778 18.698465 5.2893114 18.613281 5.0839844C18.608191 5.0718265 18.604793 5.0589848 18.599609 5.046875C18.520865 4.8612851 18.43335 4.6787867 18.330078 4.5L18.308594 4.5136719C17.441059 3.0205894 15.841704 2 14 2 z M 14 4C15.160463 4 16.146658 4.6518549 16.646484 5.6054688C16.708331 5.7225955 16.761471 5.8420705 16.806641 5.9628906C16.837879 6.0483296 16.865126 6.1356183 16.888672 6.2246094C16.913382 6.3152733 16.933301 6.4065786 16.949219 6.4980469C16.969956 6.6225629 16.983128 6.7494642 16.988281 6.8789062C16.990943 6.940963 16.995355 7.0026062 16.994141 7.0644531C16.990344 7.2094824 16.978975 7.3537209 16.951172 7.4980469C16.950834 7.5000545 16.949561 7.5018994 16.949219 7.5039062C16.917315 7.6677056 16.871559 7.8319643 16.8125 7.9980469L16.695312 8.3300781C16.441538 8.8422712 16.036837 9.2878452 15.5 9.5976562L16.5 11.330078C17.216611 10.916519 17.772371 10.337914 18.189453 9.6816406C19.275131 10.392445 20 11.598935 20 13C20 14.327105 19.35187 15.482432 18.355469 16.214844L18.005859 16.472656L17.955078 16.904297C17.750358 18.652222 16.303605 20 14.5 20C13.960336 20 13.454179 19.878832 13 19.662109L13 16.441406C13.588665 16.78601 14.263621 16.999121 14.990234 17L14.992188 15C13.879204 14.998654 12.998653 14.115598 13 13.001953L13 4.2050781C13.317931 4.0856397 13.646882 4 14 4 z M 10.107422 4.0097656C10.409829 4.0230189 10.710741 4.0850984 11 4.1894531L11 10.001953L10.994141 10.001953C10.995487 11.115594 10.11489 11.998654 9.0019531 12L9.0039062 14C9.7330112 13.999103 10.409972 13.784291 11 13.4375L11 19.662109C10.545821 19.878832 10.039664 20 9.5 20C7.6963955 20 6.2496408 18.652222 6.0449219 16.904297L5.9941406 16.472656L5.6445312 16.214844C4.6481295 15.482432 4 14.327105 4 13C4 11.598815 4.7246346 10.392988 5.8105469 9.6816406C6.2276287 10.337914 6.7833892 10.916519 7.5 11.330078L8.5 9.5976562C7.9587714 9.2853111 7.5502354 8.8338778 7.296875 8.3164062L7.1855469 8C7.008098 7.4982972 6.9699006 6.9625207 7.0625 6.4472656C7.076659 6.3735269 7.0914327 6.2997442 7.1113281 6.2265625C7.1310767 6.1505802 7.1498827 6.0745236 7.1757812 6C7.2330841 5.8402322 7.3023195 5.6825058 7.3886719 5.5292969C7.5187762 5.2975857 7.6804733 5.0773392 7.8789062 4.8789062C8.4969186 4.260894 9.3060996 3.9746468 10.107422 4.0097656 z" fill="rgb(138, 187, 249)" />
</svg>