<?xml version="1.0" encoding="utf-8"?>
<svg xmlns="http://www.w3.org/2000/svg" viewBox="0 0 24 24" width="20" height="20">
  <path d="M20.365234 2.0117188C20.22556 1.9964378 20.081046 1.9972191 19.935547 2.0175781C17.764434 2.3227306 12.720144 3.1559704 7.7167969 9L5.0742188 9L2.3984375 11.785156C2.0264375 12.157156 1.9151875 12.712219 2.1171875 13.199219C2.3181875 13.686219 2.7894062 14 3.3164062 14L5.5859375 14L5.6894531 14.103516C5.4162657 14.448001 5.2617823 14.812389 5.1074219 15.212891C4.9193817 15.700777 4.7628153 16.231993 4.6328125 16.732422C4.372807 17.733279 4.21875 18.625 4.21875 18.625L3.9707031 20.029297L5.375 19.78125C5.375 19.78125 6.2667206 19.627192 7.2675781 19.367188C7.7680069 19.237185 8.2992228 19.080618 8.7871094 18.892578C9.1876109 18.738218 9.5519986 18.583734 9.8964844 18.310547L10 18.414062L10 20.683594C10 21.210594 10.313781 21.682812 10.800781 21.882812C10.965781 21.951813 11.137641 21.982422 11.306641 21.982422C11.637641 21.982422 11.957641 21.859766 12.181641 21.634766L15 19.066406L15 16.283203C20.84403 11.279856 21.67727 6.2355663 21.982422 4.0644531C22.124935 3.0459605 21.342955 2.1186853 20.365234 2.0117188 z M 19.953125 4.046875C19.595912 6.5900675 18.79079 11.581821 11.125 16.710938L7.2890625 12.875C12.418179 5.2092104 17.409932 4.4040884 19.953125 4.046875 z M 15 8 A 1 1 0 0 0 14 9 A 1 1 0 0 0 15 10 A 1 1 0 0 0 16 9 A 1 1 0 0 0 15 8 z M 12 11 A 1 1 0 0 0 11 12 A 1 1 0 0 0 12 13 A 1 1 0 0 0 13 12 A 1 1 0 0 0 12 11 z M 7.1484375 15.5625L8.4375 16.851562C8.3304821 16.908212 8.2154737 16.969891 8.0664062 17.027344C7.6915116 17.171835 7.2183681 17.311564 6.7636719 17.429688C6.6336192 17.463477 6.6400478 17.454465 6.515625 17.484375C6.545532 17.359952 6.5365275 17.366381 6.5703125 17.236328C6.6884347 16.781632 6.8281652 16.308488 6.9726562 15.933594C7.0301095 15.784526 7.091788 15.669518 7.1484375 15.5625 z" fill="rgb(138, 187, 249)" />
</svg>