<?xml version="1.0" encoding="utf-8"?>
<svg xmlns="http://www.w3.org/2000/svg" viewBox="0 0 24 24" width="20" height="20">
  <path d="M3 2C1.895 2 1 2.895 1 4L1 16C1 17.105 1.895 18 3 18L10 18L10 20L8 20L8 22L16 22L16 20L14 20L14 18L21 18C22.105 18 23 17.105 23 16L23 4C23 2.895 22.105 2 21 2L3 2 z M 3 4L21 4L21 16L3 16L3 4 z M 12.271484 5.8183594L10.271484 13.818359L11.728516 14.181641L13.728516 6.1816406L12.271484 5.8183594 z M 8.2070312 6.7929688L5 10L8.2070312 13.207031L9.2070312 12.207031L7 10L9.2070312 7.7929688L8.2070312 6.7929688 z M 15.792969 6.7929688L14.792969 7.7929688L17 10L14.792969 12.207031L15.792969 13.207031L19 10L15.792969 6.7929688 z" fill="rgb(138, 187, 249)" />
</svg>